<svg width="545" height="138" viewBox="0 0 545 138" fill="none" xmlns="http://www.w3.org/2000/svg">
<path d="M51.3242 64.11L51.4062 64.274C54.1942 67.062 55.9162 70.916 55.9162 75.18C55.9162 81.412 52.2262 86.824 46.8962 89.284C45.5022 89.94 44.0262 90.35 42.4682 90.514C42.3042 90.514 42.1402 90.514 41.9762 90.514V90.596H14.5062V117H4.25622V59.6H40.4182C44.6822 59.6 48.5362 61.322 51.3242 64.11ZM42.6322 80.018V79.936C44.5182 79.116 45.7482 77.23 45.7482 75.18C45.7482 73.294 44.7642 71.982 44.1902 71.408C43.5342 70.752 42.3042 69.932 40.5002 69.932H14.5062V80.51H40.5002C41.2382 80.51 41.9762 80.346 42.6322 80.018ZM101.522 106.75L106.77 117H95.2903L90.0423 106.75L77.4963 82.15L64.9503 106.75L59.7023 117H48.2223L53.4703 106.75L77.4963 59.6L101.522 106.75ZM158.869 59.6L169.119 59.682V117.082L158.869 109.21L121.969 80.756V117.082H111.719V59.846L121.969 67.718L158.869 96.172V59.6ZM203.953 59.6C219.779 59.6 232.653 72.474 232.653 88.3C232.653 104.126 219.779 117 203.953 117C188.127 117 175.253 104.126 175.253 88.3C175.253 72.474 188.127 59.6 203.953 59.6ZM203.953 106.75C214.121 106.75 222.403 98.468 222.403 88.3C222.403 78.132 214.121 69.85 203.953 69.85C193.785 69.85 185.503 78.132 185.503 88.3C185.503 98.468 193.785 106.75 203.953 106.75ZM282.591 59.6H294.071L288.823 69.85L264.797 117L240.771 69.85L235.523 59.6H247.003L252.251 69.85L264.797 94.45L277.343 69.85L282.591 59.6ZM310.996 69.85C308.126 69.85 305.748 72.228 305.748 75.098V80.428H342.648V90.678H305.748V101.502C305.748 104.372 308.126 106.75 310.996 106.75H352.898V117H310.996C302.468 117 295.58 110.03 295.58 101.502V75.098C295.58 66.57 302.468 59.6 310.996 59.6H352.898V69.85H310.996ZM399.212 90.514L407.412 106.832L412.66 117.082H401.18L395.932 106.832L390.438 96.09L390.192 95.598C388.388 92.646 385.19 90.678 381.5 90.678H371.25V117.082H361V59.682H397.244C401.508 59.682 405.362 61.404 408.15 64.192C410.938 67.062 412.66 70.916 412.66 75.18C412.66 81.412 408.97 86.824 403.64 89.284C402.246 89.94 400.77 90.35 399.212 90.514ZM371.25 80.51L397.244 80.428C397.982 80.428 398.72 80.264 399.376 79.936C401.262 79.116 402.492 77.23 402.492 75.18C402.492 73.294 401.508 71.982 400.934 71.408C400.278 70.752 399.048 69.932 397.244 69.932H371.25V80.51ZM475.265 75.426L465.015 75.508V75.18C465.015 72.31 462.637 69.932 459.767 69.932H436.479C433.609 69.932 431.231 72.31 431.231 75.18V75.508C431.231 78.378 433.609 80.756 436.479 80.756H457.143C462.473 80.756 467.229 83.052 470.509 86.66C470.755 86.906 470.919 87.152 471.165 87.398C473.707 90.514 475.265 94.532 475.265 98.878C475.265 108.882 467.147 117 457.143 117H439.185C429.181 117 421.063 108.882 421.063 98.878H431.313C431.313 103.224 434.839 106.75 439.185 106.75H457.143C461.489 106.75 465.097 103.224 465.097 98.878C465.097 94.532 461.489 91.006 457.143 91.006H436.479C432.297 91.006 428.525 89.366 425.737 86.66C424.999 85.922 424.343 85.102 423.769 84.2C422.047 81.74 421.063 78.706 421.063 75.426V75.098C421.063 66.57 427.951 59.6 436.479 59.6H459.767C468.295 59.6 475.265 66.57 475.265 75.098V75.426ZM498.94 69.85C496.07 69.85 493.692 72.228 493.692 75.098V80.428H530.592V90.678H493.692V101.502C493.692 104.372 496.07 106.75 498.94 106.75H540.842V117H498.94C490.412 117 483.524 110.03 483.524 101.502V75.098C483.524 66.57 490.412 59.6 498.94 59.6H540.842V69.85H498.94Z" fill="white"/>
<path d="M177.855 32H173.439L167.839 9.6H170.559L175.359 29.28H175.999L181.119 9.6H184.959L190.079 29.28H190.719L195.519 9.6H198.239L192.639 32H188.223L183.359 13.28H182.719L177.855 32ZM215.694 32H201.294V9.6H215.694V12H203.854V19.52H215.054V21.92H203.854V29.6H215.694V32ZM233.773 32H220.013V9.6H222.573V29.6H233.773V32ZM245.461 32.32C243.498 32.32 241.695 31.84 240.053 30.88C238.41 29.8987 237.109 28.5333 236.149 26.784C235.21 25.0347 234.741 23.04 234.741 20.8C234.741 18.56 235.21 16.5653 236.149 14.816C237.109 13.0667 238.41 11.712 240.053 10.752C241.695 9.77067 243.498 9.28 245.461 9.28C247.871 9.28 249.962 9.952 251.733 11.296C253.525 12.64 254.741 14.4747 255.381 16.8H252.661C252.106 15.2 251.189 13.952 249.909 13.056C248.629 12.1387 247.146 11.68 245.461 11.68C243.967 11.68 242.591 12.064 241.333 12.832C240.095 13.6 239.114 14.6773 238.389 16.064C237.663 17.4507 237.301 19.0293 237.301 20.8C237.301 22.5707 237.663 24.1493 238.389 25.536C239.114 26.9227 240.095 28 241.333 28.768C242.591 29.536 243.967 29.92 245.461 29.92C247.146 29.92 248.629 29.4613 249.909 28.544C251.189 27.6053 252.106 26.304 252.661 24.64H255.381C254.741 27.0293 253.525 28.9067 251.733 30.272C249.962 31.6373 247.871 32.32 245.461 32.32ZM268.836 32.32C266.873 32.32 265.07 31.84 263.428 30.88C261.785 29.8987 260.484 28.5333 259.524 26.784C258.585 25.0347 258.116 23.04 258.116 20.8C258.116 18.56 258.585 16.5653 259.524 14.816C260.484 13.0667 261.785 11.712 263.428 10.752C265.07 9.77067 266.873 9.28 268.836 9.28C270.798 9.28 272.601 9.77067 274.244 10.752C275.886 11.712 277.177 13.0667 278.116 14.816C279.076 16.5653 279.556 18.56 279.556 20.8C279.556 23.04 279.076 25.0347 278.116 26.784C277.177 28.5333 275.886 29.8987 274.244 30.88C272.601 31.84 270.798 32.32 268.836 32.32ZM268.836 29.92C270.329 29.92 271.694 29.536 272.932 28.768C274.19 28 275.182 26.9227 275.908 25.536C276.633 24.1493 276.996 22.5707 276.996 20.8C276.996 19.0293 276.633 17.4507 275.908 16.064C275.182 14.6773 274.19 13.6 272.932 12.832C271.694 12.064 270.329 11.68 268.836 11.68C267.342 11.68 265.966 12.064 264.708 12.832C263.47 13.6 262.489 14.6773 261.764 16.064C261.038 17.4507 260.676 19.0293 260.676 20.8C260.676 22.5707 261.038 24.1493 261.764 25.536C262.489 26.9227 263.47 28 264.708 28.768C265.966 29.536 267.342 29.92 268.836 29.92ZM286.261 32H283.701V9.6H288.341L295.221 29.12H295.861L302.741 9.6H307.381V32H304.821V12.96H304.181L297.461 32H293.621L286.901 12.96H286.261V32ZM326.913 32H312.513V9.6H326.913V12H315.073V19.52H326.273V21.92H315.073V29.6H326.913V32ZM345.486 32H342.926V12H335.566V9.6H352.846V12H345.486V32ZM365.336 32.32C363.373 32.32 361.57 31.84 359.928 30.88C358.285 29.8987 356.984 28.5333 356.024 26.784C355.085 25.0347 354.616 23.04 354.616 20.8C354.616 18.56 355.085 16.5653 356.024 14.816C356.984 13.0667 358.285 11.712 359.928 10.752C361.57 9.77067 363.373 9.28 365.336 9.28C367.298 9.28 369.101 9.77067 370.744 10.752C372.386 11.712 373.677 13.0667 374.616 14.816C375.576 16.5653 376.056 18.56 376.056 20.8C376.056 23.04 375.576 25.0347 374.616 26.784C373.677 28.5333 372.386 29.8987 370.744 30.88C369.101 31.84 367.298 32.32 365.336 32.32ZM365.336 29.92C366.829 29.92 368.194 29.536 369.432 28.768C370.69 28 371.682 26.9227 372.408 25.536C373.133 24.1493 373.496 22.5707 373.496 20.8C373.496 19.0293 373.133 17.4507 372.408 16.064C371.682 14.6773 370.69 13.6 369.432 12.832C368.194 12.064 366.829 11.68 365.336 11.68C363.842 11.68 362.466 12.064 361.208 12.832C359.97 13.6 358.989 14.6773 358.264 16.064C357.538 17.4507 357.176 19.0293 357.176 20.8C357.176 22.5707 357.538 24.1493 358.264 25.536C358.989 26.9227 359.97 28 361.208 28.768C362.466 29.536 363.842 29.92 365.336 29.92Z" fill="white"/>
</svg>
